<svg width="27" height="49" viewBox="0 0 27 49" fill="none" xmlns="http://www.w3.org/2000/svg">
<path d="M26.8305 0.787872C26.8506 1.33011 26.5892 1.60977 26.045 1.62887C23.6495 1.64024 20.9934 1.98306 18.0819 2.65773C15.1702 3.33226 12.5043 4.26927 10.0855 5.46192C4.03296 8.47312 1.23035 12.4661 1.67588 17.4394C1.88716 19.9504 3.40774 22.0894 6.23857 23.8596C7.87226 20.6837 10.4314 17.9781 13.9124 15.7404C15.4161 14.7476 16.5245 14.093 17.2388 13.7749C18.8539 13.0464 20.264 12.9659 21.4656 13.5263C23.6746 14.5351 24.6741 16.076 24.4729 18.1514C24.2372 19.9403 23.2067 21.6677 21.379 23.3372C19.5254 25.0559 17.3413 26.2505 14.8245 26.9247C12.2627 27.5706 9.8518 27.3731 7.59485 26.3366C7.36909 26.2704 7.15362 26.1819 6.9537 26.0664C5.36722 30.195 5.68032 34.4255 7.89261 38.7587C9.08811 41.1765 10.204 42.9819 11.2392 44.1769C10.9375 42.7415 10.8494 40.8297 10.9649 38.4408C10.9459 37.8967 11.213 37.6382 11.7658 37.6575C12.3175 37.6787 12.5665 37.9711 12.5059 38.5333C12.4036 42.391 12.8368 45.0326 13.8084 46.4576L13.9564 46.543C14.4562 46.8316 14.5505 47.1834 14.2408 47.6044C14.1265 47.8024 13.9505 47.9341 13.7159 47.9985C13.3862 48.3388 13.0363 48.3675 12.6662 48.0897C10.2709 46.3736 7.53393 45.3599 4.46281 45.0452C3.90056 44.9846 3.65348 44.6933 3.72275 44.1694C3.79392 43.6466 4.0708 43.4245 4.55532 43.5043C6.40503 43.6392 8.05436 43.9968 9.51554 44.5738C8.60834 43.3836 7.58857 41.7003 6.45529 39.5208C3.96509 34.6304 3.68707 29.8868 5.60909 25.2882C2.2017 23.2518 0.349401 20.6572 0.0500065 17.4955C-0.438593 11.8998 2.65337 7.41015 9.32223 4.02388C11.8467 2.75921 14.622 1.8059 17.6474 1.16081C20.7055 0.468174 23.4845 0.0810459 25.9869 0.000603511C26.5338 -0.0143101 26.8135 0.247147 26.8318 0.788272L26.8305 0.787872ZM8.22695 24.9076C10.1341 25.7421 12.2142 25.8819 14.4619 25.3186C16.7123 24.7595 18.6408 23.7146 20.2531 22.1873C21.8577 20.7888 22.7268 19.3989 22.8615 18.0157C23.0463 16.6613 22.3723 15.6442 20.8431 14.9587C20.0376 14.6269 19.0523 14.7219 17.8891 15.2449C17.2825 15.4919 16.2432 16.0889 14.7676 17.0287C11.5212 19.2018 9.16762 21.729 7.7051 24.6039L8.22695 24.9076Z" fill="#282F08"/>
</svg>
